
        <svg xmlns="http://www.w3.org/2000/svg" xmlns:xlink="http://www.w3.org/1999/xlink" version="1.1" width="3187.5" height="928.9268026262304" viewBox="0 0 3187.5 928.9268026262304">
			
			<g transform="scale(9.375) translate(10, 10)">
				<defs id="SvgjsDefs1435"/><g id="SvgjsG1436" featureKey="PG4fjM-0" transform="matrix(1.0292596777752563,0,0,1.0292596777752563,-2.013634101097876,-18.38860065380982)" fill="#000"><title xmlns="http://www.w3.org/2000/svg">icons_furniture_3</title><path xmlns="http://www.w3.org/2000/svg" d="M95.69,46.1c1.56-1.09,2.42-2.3,2.42-3.62v-5c0-7.06-24.61-10.87-47.77-10.87S2.57,30.43,2.57,37.49v5c0,1.4,1,2.67,2.7,3.8l-.72,1.12a16.24,16.24,0,0,0-1.74,14L5,68a14.23,14.23,0,0,1,.67,5.95L4.54,85.63H8.9l1.86-11.46a16.22,16.22,0,0,0-.35-6.87L9,61.89a14.26,14.26,0,0,1,2.77-12.83c8.47,2.57,21.71,4,34.93,4.25l1,22.06h3.88l1-22C66.4,53.2,80.5,51.7,89.27,49a14.26,14.26,0,0,1,2.85,12.93l-1.46,5.4a16.19,16.19,0,0,0-.36,6.87l1.86,11.46h4.36L95.39,73.91A14.22,14.22,0,0,1,96.06,68l2.2-6.56a16.24,16.24,0,0,0-1.74-14ZM50.34,28.62c28.36,0,45.77,5.17,45.77,8.87A2.62,2.62,0,0,1,95,39.21c-5.12,4.15-23.89,7.16-44.64,7.16s-39.52-3-44.64-7.15a2.63,2.63,0,0,1-1.13-1.73C4.57,33.79,22,28.62,50.34,28.62ZM4.57,40.87l.22.16.29.21.31.2.33.2.35.2.37.2.38.19.4.2.41.18.44.19.44.18.48.19.48.17.51.18.5.17.55.18.54.16.57.17.57.16.61.17.59.15.64.16.62.15.67.16.63.14.71.15.65.13.74.15.69.13L20,46l.72.12.78.13.72.11.82.13.75.11.83.12.79.11.83.11L27,47l.89.11.79.09.91.1.87.09.87.09.88.08.9.08.9.07.9.07,1,.07.87.06,1,.06.84,0,1,.05.85,0,1,0,.94,0,1,0,.94,0,1.12,0,.84,0,1.2,0h5.6l1.17,0,.76,0,1.21,0,.76,0,1.18,0,.85,0,1.07,0,.83,0L62,48.05l.81,0,1.06-.06.83-.06,1-.07.83-.07,1-.08.78-.07,1-.09.79-.08,1-.1.77-.08.93-.1.75-.09.92-.11.75-.1.87-.12.76-.11.83-.12.73-.12.81-.13.71-.12.78-.13.69-.13.76-.14.65-.13.74-.15.65-.14.69-.15.63-.15.66-.16.6-.15.63-.16.58-.16.59-.17L89.1,44l.56-.17.53-.17.52-.17.5-.18.49-.18.47-.19.45-.18.44-.19.41-.18.41-.2.38-.19.37-.21.34-.19.34-.21.3-.19.3-.22.21-.15v1.61c0,3.7-17.41,8.87-45.77,8.87S4.57,46.18,4.57,42.48ZM7,62.41l1.46,5.4a14.23,14.23,0,0,1,.31,6L7.2,83.63H6.75l.93-9.52a16.21,16.21,0,0,0-.77-6.78l-2.2-6.56A14.25,14.25,0,0,1,6.23,48.49L7,47.27a27.11,27.11,0,0,0,2.69,1.12A16.25,16.25,0,0,0,7,62.41Zm42.59,11h-.05l-.91-20h1.87ZM96.37,60.77l-2.2,6.56a16.2,16.2,0,0,0-.77,6.78l.93,9.52h-.46l-1.59-9.79a14.21,14.21,0,0,1,.31-6l1.46-5.4a16.25,16.25,0,0,0-2.77-14.14A25.51,25.51,0,0,0,94,47.12l.88,1.37A14.25,14.25,0,0,1,96.37,60.77Z"/><path xmlns="http://www.w3.org/2000/svg" d="M13.12,39.79c4.55,2.6,19.51,4.34,37.22,4.34S83,42.38,87.56,39.78c1.14-.65,1.72-1.43,1.72-2.29,0-6.55-37.35-6.63-38.94-6.63s-38.94.08-38.94,6.63C11.4,38.36,12,39.13,13.12,39.79Zm37.22-6.92c23.33,0,36.16,2.94,36.93,4.62a2,2,0,0,1-.7.56c-4.15,2.36-19.38,4.08-36.23,4.08s-32.08-1.71-36.23-4.07a3.09,3.09,0,0,1-.71-.53h0C14,35.84,26.88,32.87,50.34,32.87Z"/></g><g id="SvgjsG1437" featureKey="jxYttZ-0" transform="matrix(4.233700445473326,0,0,4.233700445473326,116.27434110468921,-22.777308881155058)" fill="#000"><path d="M8.14 16.16 c0.04 0.12 0.38 1.1 -0.04 2.1 c-0.52 1.18 -1.9 1.94 -3.62 1.94 l-0.02 0 c-1.38 0 -2.64 -0.58 -3.58 -1.5 l1.34 -1.34 c0.56 0.72 1.36 1.08 2.24 1.08 c0.98 0 1.8 -0.36 2.02 -0.88 c0.14 -0.36 0.02 -0.74 0.02 -0.78 c-0.24 -0.6 -1.12 -0.72 -2.12 -0.94 c-1.34 -0.3 -2.68 -0.64 -3.2 -2.04 c-0.26 -0.72 -0.18 -1.56 0.18 -2.26 c0.82 -1.54 2.86 -1.6 3.1 -1.6 c1.38 0 2.68 0.52 3.6 1.46 l-1.34 1.34 c-0.56 -0.72 -1.38 -1.04 -2.26 -1.04 c-0.02 0 -1.2 0.02 -1.54 0.68 c-0.12 0.2 -0.18 0.54 -0.08 0.82 c0.2 0.56 1.1 0.74 2.06 0.96 c1.3 0.3 2.72 0.6 3.24 2 z M14.82 9.92 c2.84 0 3.98 1.72 3.98 3.18 l0 6.9 l-2.06 0 l0 -1.08 c-0.72 0.98 -2 1.26 -2.8 1.26 c-2.26 0 -3.74 -1.32 -3.74 -3.08 c0 -2.46 1.84 -3.34 3.74 -3.34 l2.8 0 l0 -0.66 c0 -0.62 -0.24 -1.48 -1.92 -1.48 c-0.94 0 -1.8 0.5 -2.36 1.28 l-1.42 -1.28 c0.94 -1.04 2.28 -1.7 3.78 -1.7 z M16.740000000000002 16.92 l0 -1.48 l-2.52 0 c-1.22 0 -2.08 0.62 -1.94 1.74 c0.12 0.94 0.88 1.32 1.94 1.32 c1.9 0 2.52 -0.9 2.52 -1.58 z M30.419999999999998 14.3 l0 5.7 l-2.06 0 l0 -5.5 c0 -2 -0.62 -2.88 -2.32 -2.88 c-1.92 0 -2.7 1.34 -2.7 3.08 l0 5.3 l-2.06 0 l0 -9.88 l2.06 0 l0 1.6 c0.28 -0.88 1.52 -1.68 2.7 -1.76 c2.68 -0.2 4.38 1.1 4.38 4.34 z M33.02 15.82 l0 -5.7 l2.06 0 l0 5.5 c0 2 0.62 2.88 2.32 2.88 c1.92 0 2.7 -1.34 2.7 -3.08 l0 -5.3 l2.06 0 l0 9.88 l-2.06 0 l0 -1.6 c-0.28 0.88 -1.52 1.68 -2.7 1.76 c-2.68 0.2 -4.38 -1.1 -4.38 -4.34 z M48.120000000000005 6.5 c0 0.64 -0.5 1.14 -1.12 1.14 c-0.64 0 -1.14 -0.5 -1.14 -1.14 c0 -0.62 0.5 -1.12 1.14 -1.12 c0.62 0 1.12 0.5 1.12 1.12 z M43.36000000000001 22.16 c0.3 0.14 0.8 0.32 1.44 0.06 c0.98 -0.44 1.14 -1.04 1.14 -2.68 l0 -9.42 l2.06 0 l0 9.42 c0 1.56 0.02 2.1 -0.6 3.1 c-0.62 1.04 -1.68 1.42 -2.86 1.42 c-0.54 0 -0.92 -0.14 -1.18 -0.3 l0 -1.6 z"/></g>
			</g>
		</svg>
	